<svg version="1.1" id="Layer_1" xmlns="http://www.w3.org/2000/svg" xmlns:xlink="http://www.w3.org/1999/xlink" x="0px" y="0px"
	 width="100%" viewBox="0 0 590 436" enable-background="new 0 0 590 436" xml:space="preserve">
<path fill="#FFFFFF" opacity="1.000000" stroke="none" 
	d="
M322.000000,437.000000 
	C214.692673,437.000000 107.885361,437.000000 1.039019,437.000000 
	C1.039019,291.728088 1.039019,146.456131 1.039019,1.092098 
	C197.557327,1.092098 394.114716,1.092098 590.836060,1.092098 
	C590.836060,146.333191 590.836060,291.666565 590.836060,437.000000 
	C501.456085,437.000000 411.978058,437.000000 322.000000,437.000000 
M331.016022,239.054962 
	C331.988220,232.148407 331.262695,230.928574 323.045166,228.130371 
	C320.784637,227.360641 318.134277,227.735779 315.662811,227.585587 
	C315.761353,230.051468 315.859894,232.517349 315.912872,235.916489 
	C315.912872,240.015488 315.912872,244.114487 315.912872,248.132568 
	C325.488922,249.575226 330.668182,246.601166 331.016022,239.054962 
M376.050751,209.823410 
	C376.109985,210.853668 376.169220,211.883942 376.089294,213.771912 
	C376.893921,214.799286 377.547699,216.495544 378.533875,216.717957 
	C380.740753,217.215714 383.120392,216.886093 385.416565,217.063171 
	C389.348267,217.366394 390.380768,215.527206 389.739380,212.988266 
	C386.517944,211.364166 383.980072,210.084686 381.566345,207.903503 
	C381.566345,199.097977 381.566345,190.292450 381.566345,181.285248 
	C379.566833,181.285248 378.011902,181.285248 376.112274,181.285248 
	C376.112274,189.699005 376.112274,197.825485 375.920013,206.714752 
	C375.984650,207.493057 376.049316,208.271362 376.050751,209.823410 
M196.185410,211.585815 
	C194.135330,211.472275 192.085236,211.358719 189.952759,211.240616 
	C189.876999,209.970169 189.778091,209.163071 189.790695,208.357697 
	C189.823914,206.234741 189.905579,204.112534 190.772018,201.954590 
	C192.241592,201.954590 193.711182,201.954590 195.274109,201.954590 
	C195.274109,199.884323 195.274109,198.165207 195.274109,196.281799 
	C193.621536,196.155624 192.003830,196.032120 190.176605,195.892624 
	C190.176605,192.874573 190.176605,189.982101 190.176605,186.915390 
	C192.853882,186.742661 195.271240,186.586685 198.038330,186.408157 
	C197.946777,184.440109 197.874039,182.876114 197.794434,181.164673 
	C193.180450,181.164673 188.952255,181.164673 184.377914,181.164673 
	C184.377914,188.290070 184.377914,195.174759 184.239075,202.974960 
	C184.239075,207.419037 184.239075,211.863113 184.239075,216.838715 
	C188.018951,216.838715 191.308655,216.674988 194.574097,216.886093 
	C197.664612,217.085892 198.391312,215.692856 197.928970,212.439819 
	C197.626846,212.256470 197.324738,212.073120 196.185410,211.585815 
M412.610046,209.819199 
	C413.400574,214.958755 415.762390,217.247787 420.143677,216.893906 
	C424.721619,216.524124 426.819977,213.727554 426.896912,209.337311 
	C426.945831,206.546082 426.737274,203.750336 426.830994,200.047775 
	C426.837555,196.218796 426.981598,192.383881 426.816559,188.562317 
	C426.601288,183.577652 423.837891,180.882355 419.414246,181.007385 
	C415.160706,181.127609 412.711273,183.642365 412.591156,188.541641 
	C412.448395,194.362976 412.606445,200.191666 412.281616,206.434753 
	C412.448853,207.296631 412.616058,208.158524 412.610046,209.819199 
M151.248581,204.769592 
	C151.248581,208.701553 151.248581,212.633514 151.248581,216.703125 
	C152.903931,216.703125 154.340134,216.703125 156.651474,216.703125 
	C156.122437,212.297501 155.627487,208.175797 155.731796,203.830032 
	C155.731796,198.278580 155.731796,192.727112 155.731796,187.117752 
	C158.042053,186.712418 159.447769,186.465775 160.930313,186.205658 
	C160.930313,184.380600 160.930313,182.803925 160.930313,181.192673 
	C155.881393,181.192673 151.125122,181.192673 146.153427,181.192673 
	C146.153427,182.954849 146.153427,184.510193 146.153427,186.175095 
	C147.799255,186.456680 149.219421,186.699646 151.167770,187.032990 
	C151.167770,192.759903 151.167770,198.373138 151.248581,204.769592 
M398.091797,204.732483 
	C398.091797,208.628448 398.091797,212.524414 398.091797,216.542618 
	C400.118530,216.542618 401.643066,216.542618 403.701904,216.542618 
	C403.480499,214.776413 403.306183,213.385590 403.354492,211.089081 
	C403.354492,203.130264 403.354492,195.171463 403.354492,187.260712 
	C405.536713,186.771683 406.939514,186.457321 408.739807,186.053894 
	C408.640564,184.343170 408.550415,182.788864 408.463196,181.285065 
	C403.054077,181.285065 398.145996,181.285065 393.222534,181.285065 
	C393.222534,183.092850 393.222534,184.551025 393.222534,186.142380 
	C394.826691,186.466675 396.251465,186.754715 398.229431,187.154572 
	C398.229431,192.756485 398.229431,198.389603 398.091797,204.732483 
M179.919235,204.200577 
	C179.867065,203.122314 179.814880,202.044037 179.936020,200.047485 
	C179.936020,193.804001 179.936020,187.560532 179.936020,181.251907 
	C177.910461,181.251907 176.501709,181.251907 174.923218,181.251907 
	C174.616241,186.379166 174.323410,191.270172 173.092239,196.190430 
	C172.261719,194.975601 170.825180,193.813049 170.715057,192.536118 
	C170.393280,188.804520 170.600662,185.027298 170.600662,180.883957 
	C168.535645,181.019379 166.973511,181.121811 165.328888,181.229645 
	C165.328888,193.227310 165.328888,204.790955 165.328888,216.635651 
	C167.161133,216.635651 168.719803,216.635651 170.845139,216.635651 
	C170.845139,212.942871 170.655716,209.474899 170.934738,206.045044 
	C171.052872,204.592896 172.155502,203.220840 172.810669,201.812378 
	C173.490646,203.227844 174.170624,204.643311 174.562637,206.939880 
	C174.562637,210.166946 174.562637,213.393997 174.562637,216.907013 
	C176.775818,216.794724 178.180832,216.723419 179.837936,216.639343 
	C179.837936,212.545395 179.837936,208.776855 179.919235,204.200577 
M124.029938,97.656021 
	C123.194664,96.437027 122.374771,94.167740 121.521820,94.155243 
	C106.724174,93.938492 91.922470,93.999031 77.197754,93.999031 
	C77.197754,110.049004 77.197754,125.738411 77.197754,141.359589 
	C81.452667,141.359589 85.513268,141.359589 90.040649,141.359589 
	C90.040649,130.110397 90.040649,119.353874 90.040649,108.061310 
	C101.560585,108.061310 112.617729,108.061310 124.030373,108.061310 
	C124.030373,104.546509 124.030373,101.578339 124.029938,97.656021 
M502.142609,301.635590 
	C502.142609,310.560730 502.142609,319.485840 502.142609,328.938110 
	C490.444763,328.938110 479.392181,328.938110 468.285767,328.938110 
	C468.285767,333.879150 468.285767,338.272491 468.285767,342.722260 
	C483.995575,342.722260 499.392212,342.722260 514.776794,342.722260 
	C514.776794,326.765808 514.776794,311.095306 514.776794,295.473358 
	C510.414459,295.473358 506.501617,295.473358 502.142731,295.473358 
	C502.142731,297.424408 502.142731,299.052216 502.142609,301.635590 
M116.442627,328.841888 
	C107.684700,328.841888 98.926781,328.841888 89.632988,328.841888 
	C89.632988,317.245178 89.632988,306.347778 89.632988,295.430786 
	C85.149071,295.430786 81.226067,295.430786 77.167313,295.430786 
	C77.167313,311.388153 77.167313,327.058167 77.167313,342.678650 
	C92.947914,342.678650 108.335609,342.678650 123.688477,342.678650 
	C123.688477,337.947998 123.688477,333.547913 123.688477,328.841797 
	C121.377632,328.841797 119.402138,328.841797 116.442627,328.841888 
M469.765808,94.016800 
	C469.175720,94.635384 468.100586,95.234497 468.074829,95.875740 
	C467.916595,99.816833 467.995544,103.767448 467.995544,108.226868 
	C479.566559,108.226868 490.626953,108.226868 502.235901,108.226868 
	C502.235901,119.634987 502.235901,130.527969 502.235901,141.454727 
	C506.846161,141.454727 510.882477,141.454727 514.893982,141.454727 
	C514.893982,125.493912 514.893982,109.934227 514.893982,93.998779 
	C499.953552,93.998779 485.337189,93.998779 469.765808,94.016800 
M305.151855,211.202545 
	C305.151855,201.259018 305.151855,191.315475 305.151855,181.290024 
	C303.145569,181.290024 301.581940,181.290024 299.416321,181.290024 
	C299.416321,186.702759 299.416321,191.806717 299.416321,196.910690 
	C297.222198,193.087524 295.873505,189.210724 294.985168,185.231171 
	C294.101746,181.273560 292.176453,179.988785 288.413422,181.547852 
	C288.413422,193.300934 288.413422,204.874359 288.413422,216.865540 
	C290.302917,216.759155 291.850433,216.672043 293.958282,216.553375 
	C293.958282,210.884064 293.958282,205.632477 293.958282,200.380905 
	C296.098236,204.587936 297.618927,208.780960 298.567657,213.099655 
	C299.397766,216.878326 301.417999,217.520462 304.947937,216.407990 
	C305.014374,215.002579 305.083221,213.546539 305.151855,211.202545 
M330.167084,181.947586 
	C326.654968,181.537140 323.142822,181.126694 319.411469,180.690613 
	C319.411469,193.213715 319.411469,204.783966 319.411469,216.547775 
	C321.251801,216.547775 322.803070,216.547775 324.593506,216.547775 
	C324.750183,213.324402 324.892792,210.390518 325.043701,207.286133 
	C328.711426,210.077301 326.050293,218.180328 334.391602,216.703262 
	C332.914062,212.409622 331.452942,208.707321 330.428986,204.887802 
	C330.079041,203.582581 330.387390,201.683121 331.148499,200.570709 
	C334.305359,195.956696 334.300140,187.071320 330.167084,181.947586 
M445.759857,214.764145 
	C444.597595,211.478561 443.334656,208.223389 442.328278,204.890732 
	C441.981934,203.743759 441.738770,201.810501 442.362366,201.246094 
	C447.047089,197.005905 445.272339,191.555847 444.889557,186.667633 
	C444.737457,184.725006 442.068359,182.139343 439.992310,181.400925 
	C437.416687,180.484833 434.267456,181.181412 431.435852,181.181412 
	C431.435852,193.372665 431.435852,204.945724 431.435852,216.912796 
	C433.361633,216.778381 434.911591,216.670197 436.838684,216.535690 
	C436.838684,213.189331 436.838684,210.309296 436.838684,207.429260 
	C438.618408,209.852325 439.374176,212.510468 440.506775,214.996979 
	C441.877045,218.005341 443.835663,218.169144 445.759857,214.764145 
M269.446625,202.424927 
	C269.453217,204.750839 269.354523,207.082825 269.487976,209.401443 
	C269.778992,214.457428 272.356262,216.998047 276.889374,216.867966 
	C281.125702,216.746414 283.725586,214.167175 283.834991,209.418930 
	C283.995697,202.444641 284.003052,195.460678 283.828857,188.486984 
	C283.710083,183.732193 281.074799,181.110443 276.894653,180.994400 
	C272.420532,180.870193 269.726105,183.460190 269.506104,188.492111 
	C269.317596,192.803848 269.454285,197.129791 269.446625,202.424927 
M358.903381,192.196136 
	C357.548340,200.277573 356.193329,208.358994 354.769897,216.848404 
	C357.029114,216.641144 358.455109,216.510330 359.912201,216.376663 
	C360.435669,214.470978 360.907745,212.752426 361.362518,211.096741 
	C363.086823,211.096741 364.536682,211.096741 366.075195,211.096741 
	C366.582947,213.011093 367.042053,214.741928 367.586670,216.795319 
	C369.046753,216.723633 370.434784,216.655502 372.443512,216.556900 
	C370.520874,204.440445 368.668945,192.769791 366.788086,180.916580 
	C364.373413,181.022049 362.633698,181.098022 360.741852,181.180664 
	C360.112518,184.821335 359.549713,188.077103 358.903381,192.196136 
M226.356400,180.979935 
	C225.232391,181.805679 223.427628,182.433151 223.118042,183.496078 
	C222.336777,186.178574 222.285660,189.066315 221.835464,191.854614 
	C221.347290,194.878174 220.738647,197.882278 220.182541,200.894852 
	C218.539062,195.607193 217.505157,190.533508 217.145172,185.412460 
	C216.829559,180.922729 214.988754,180.047455 210.993820,181.629654 
	C212.963791,193.405060 214.903366,204.998795 216.851669,216.644730 
	C219.077881,216.644730 220.853485,216.644730 222.957138,216.644730 
	C224.821625,205.361160 226.685959,194.239914 228.428864,183.099670 
	C228.525818,182.480118 227.617981,181.703369 226.356400,180.979935 
M253.504059,192.577652 
	C254.133957,192.419708 255.317932,192.236847 255.312119,192.107483 
	C255.190872,189.411423 255.822205,186.063705 254.453430,184.216873 
	C253.108658,182.402435 249.554291,181.111084 247.251358,181.458435 
	C245.250061,181.760315 242.551682,184.422302 242.079285,186.481323 
	C240.963181,191.345993 240.835922,196.459900 246.051025,199.787964 
	C247.554092,200.747162 249.341187,202.078766 249.829300,203.611786 
	C250.495758,205.704865 250.096848,208.156433 249.996124,210.447342 
	C249.984940,210.701477 248.939682,210.910141 248.374008,211.139893 
	C247.890549,209.538864 247.417908,207.934402 246.914078,206.339813 
	C246.819031,206.038971 246.599854,205.777344 246.366272,205.373764 
	C245.006119,205.373764 243.584763,205.373764 241.940506,205.373764 
	C241.846527,206.902405 241.656601,208.212830 241.705505,209.514267 
	C241.885681,214.309906 244.288864,216.813568 248.654984,216.869751 
	C252.921921,216.924652 255.516739,214.315491 255.952209,209.719116 
	C256.398560,205.007889 255.824066,200.780365 251.474136,197.859894 
	C250.248795,197.037216 249.170914,195.920456 248.221786,194.775726 
	C246.001602,192.098022 246.624481,188.416946 249.044724,187.145691 
	C250.281769,188.982346 251.492889,190.780533 253.504059,192.577652 
M344.501587,216.866196 
	C346.611237,216.866196 348.720886,216.866196 351.325714,216.866196 
	C351.222656,214.701248 351.149841,213.171097 351.063263,211.352890 
	C348.238098,211.352890 345.940430,211.352890 343.384003,211.352890 
	C343.384003,208.118561 343.384003,205.197235 343.384003,202.095764 
	C345.280548,201.941574 347.035034,201.798935 348.819397,201.653885 
	C348.819397,199.698959 348.819397,198.006241 348.819397,196.331772 
	C346.765900,196.164032 345.140167,196.031250 343.395874,195.888763 
	C343.395874,192.787292 343.395874,189.871063 343.395874,186.827423 
	C346.083984,186.644257 348.508820,186.479034 351.050415,186.305862 
	C351.050415,184.401840 351.050415,182.826447 351.050415,181.301483 
	C346.523224,181.301483 342.307129,181.301483 338.024231,181.301483 
	C338.024231,193.231537 338.024231,204.836197 338.024231,216.866150 
	C340.011963,216.866150 341.807129,216.866150 344.501587,216.866196 
M232.058533,213.183960 
	C231.613007,218.063599 234.575882,216.957825 237.516052,216.493546 
	C237.516052,204.630661 237.516052,193.068405 237.516052,181.232346 
	C235.691666,181.232346 234.134079,181.232346 232.058319,181.232346 
	C232.058319,191.724640 232.058319,201.988403 232.058533,213.183960 
M265.077240,212.287079 
	C265.077240,201.904739 265.077240,191.522400 265.077240,180.876129 
	C262.913849,181.055710 261.503601,181.172760 260.185059,181.282211 
	C260.185059,193.313187 260.185059,204.985382 260.185059,216.539688 
	C263.427155,217.272308 265.625092,217.055481 265.077240,212.287079 
M290.866730,237.458603 
	C288.731934,240.624817 288.496643,244.280716 291.469116,246.415253 
	C293.784515,248.077927 297.360443,247.985184 300.654633,248.736038 
	C300.365448,254.428131 298.002960,255.087769 289.585144,250.097488 
	C290.450287,254.318329 292.744080,256.157135 296.489410,256.007416 
	C300.383881,255.851776 302.718506,253.448181 302.978668,249.732117 
	C303.313660,244.947571 303.060211,240.121841 303.060211,235.694580 
	C301.182312,235.480728 299.618866,235.000687 298.150665,235.204895 
	C295.840332,235.526291 293.594116,236.308289 290.866730,237.458603 
M395.784698,246.532562 
	C396.177643,247.205490 396.570587,247.878418 396.963531,248.551346 
	C397.885254,245.213638 398.487152,241.955505 397.662811,239.110657 
	C397.156494,237.363312 394.554749,235.205521 392.742065,235.054504 
	C388.199249,234.676056 383.569977,235.334961 378.780914,235.588028 
	C379.086823,239.881683 378.390656,244.262299 380.116669,248.408752 
	C381.071655,246.089645 380.591248,243.691147 381.218964,241.630142 
	C381.750610,239.884598 383.563995,238.529434 384.810181,237.001511 
	C385.690979,238.526917 386.965057,239.958649 387.356171,241.600693 
	C387.883636,243.814941 387.731354,246.191071 387.870758,248.497742 
	C388.416748,248.504623 388.962738,248.511505 389.508759,248.518387 
	C389.625488,245.853455 389.452820,243.129395 389.980042,240.548325 
	C390.246674,239.243042 391.778870,238.196304 392.738831,237.032654 
	C393.735321,238.101562 395.225555,239.020554 395.606842,240.276245 
	C396.115662,241.951904 395.763031,243.889160 395.784698,246.532562 
M194.005936,237.405914 
	C193.548218,239.933105 193.780563,242.984375 192.395874,244.807541 
	C191.435303,246.072266 187.995880,246.378357 186.137955,245.737869 
	C184.714828,245.247269 183.332855,242.675781 183.159622,240.909454 
	C182.735275,236.583313 183.021011,232.187515 183.021011,227.819748 
	C182.394730,227.857498 181.768448,227.895248 181.142166,227.932999 
	C181.142166,233.290115 180.640182,238.721207 181.412674,243.964508 
	C181.685440,245.815781 184.932587,248.245712 187.074341,248.533859 
	C189.468216,248.855927 192.619339,247.622787 194.588211,246.019409 
	C197.162415,243.923111 196.901871,231.094528 194.005859,226.638626 
	C194.005859,230.743530 194.005859,233.610016 194.005936,237.405914 
M356.969147,237.856461 
	C356.266327,237.163864 355.660919,236.314835 354.843719,235.805923 
	C351.424164,233.676407 346.931915,234.804047 344.916473,238.204697 
	C342.896667,241.612732 343.955536,245.446182 347.511749,247.600479 
	C351.208069,249.839661 354.136139,248.961334 356.977142,244.423492 
	C353.456604,245.028030 349.617126,248.379440 346.507690,242.709808 
	C350.778198,242.709808 354.208435,242.709808 358.258209,242.709808 
	C357.856171,240.973923 357.576691,239.767197 356.969147,237.856461 
M366.137024,234.926239 
	C361.434753,236.905823 359.705872,239.978363 360.999969,244.055695 
	C362.210358,247.869308 365.356628,249.098770 370.195496,247.888321 
	C371.327972,247.605011 372.629608,247.997849 374.062256,248.093567 
	C374.062256,243.832138 374.062256,239.584732 374.062256,235.707901 
	C371.531097,235.408096 369.274078,235.140762 366.137024,234.926239 
M201.344421,248.570633 
	C201.857559,246.138092 201.989227,243.528290 203.009979,241.331604 
	C203.765732,239.705200 205.678085,238.616257 207.075211,237.287903 
	C207.817215,238.731735 208.907410,240.104691 209.219101,241.636108 
	C209.679596,243.898560 209.586578,246.273666 209.729263,248.600784 
	C210.557358,248.518860 211.385468,248.436935 212.213562,248.354996 
	C211.735291,244.442963 212.397232,239.726303 210.395340,236.889435 
	C208.956558,234.850586 203.961411,235.321381 199.805359,234.530396 
	C200.112640,239.803787 200.359344,244.037704 201.344421,248.570633 
M235.216904,243.733002 
	C235.601883,238.279449 233.862778,235.431320 229.645584,234.940323 
	C225.692307,234.480057 222.808853,235.991913 221.765259,240.038345 
	C220.784149,243.842560 222.896591,247.326691 226.839111,248.394211 
	C230.631317,249.421036 233.150330,247.550385 235.216904,243.733002 
M258.629608,239.049744 
	C258.117096,238.925354 257.159119,238.809143 257.156647,238.675354 
	C257.078094,234.403915 257.092041,230.130768 257.092041,225.857864 
	C256.591278,225.881851 256.090546,225.905823 255.589783,225.929794 
	C255.589783,233.428131 255.589783,240.926483 255.589783,248.424820 
	C255.917511,248.442902 256.245239,248.460983 256.572937,248.479080 
	C256.886810,246.765549 257.200684,245.052017 257.514526,243.338486 
	C257.971954,243.056503 258.429352,242.774521 258.886780,242.492538 
	C260.312714,244.744736 261.738647,246.996948 263.164551,249.249146 
	C263.596252,248.835587 264.027954,248.422028 264.459656,248.008453 
	C262.879883,245.834900 261.300110,243.661346 259.672211,241.421524 
	C261.254303,239.355972 262.709961,237.455505 264.165619,235.555054 
	C263.860687,235.226044 263.555786,234.897049 263.250854,234.568054 
	C261.857697,235.873123 260.464539,237.178192 258.629608,239.049744 
M248.109039,238.410110 
	C248.987747,238.983307 249.866455,239.556503 251.856049,240.854355 
	C249.835037,235.408844 246.867508,234.055161 243.042816,235.121490 
	C239.627625,236.073654 237.335083,238.979996 238.387482,242.242615 
	C239.210861,244.795258 241.741486,247.608246 244.204697,248.615555 
	C247.281052,249.873657 249.701981,247.479065 250.860870,245.396271 
	C247.488312,245.019745 244.433212,244.904221 241.557114,244.126602 
	C241.099106,244.002808 240.761353,239.974030 241.566833,239.382187 
	C243.083359,238.267914 245.473618,238.342728 248.109039,238.410110 
M408.678680,244.593842 
	C406.614777,250.630859 403.589905,244.276657 400.780457,245.713409 
	C402.326996,247.157379 404.128937,248.669571 405.934570,248.674042 
	C407.583191,248.678116 410.293671,247.385315 410.707245,246.083191 
	C412.713409,239.766556 404.924316,241.847870 402.611633,236.794373 
	C405.830566,237.372208 407.958008,237.754120 410.085419,238.136032 
	C410.245392,237.691589 410.405334,237.247147 410.565308,236.802704 
	C408.612793,236.162521 406.621124,234.949615 404.721252,235.079453 
	C403.410858,235.169006 401.082611,237.324417 401.239380,238.188171 
	C401.516724,239.716293 403.206848,241.120361 404.562042,242.275635 
	C405.522919,243.094803 406.905579,243.419220 408.678680,244.593842 
M286.080231,246.012863 
	C286.084259,236.409531 286.084045,236.411530 276.801941,235.382233 
	C276.227356,235.318527 275.660553,235.184967 275.439362,235.145782 
	C275.439362,239.775223 275.439362,244.085754 275.439362,248.396286 
	C275.850739,248.383087 276.262115,248.369873 276.673492,248.356674 
	C276.829102,245.807220 276.525208,243.104279 277.306915,240.763977 
	C277.802185,239.281311 279.914673,238.338852 281.301849,237.154114 
	C282.175842,238.492752 283.547821,239.741180 283.810394,241.190582 
	C284.233185,243.524338 283.923889,245.990692 283.923889,248.401031 
	C284.289825,248.469193 284.655762,248.537369 285.021729,248.605530 
	C285.370392,248.023346 285.719055,247.441162 286.080231,246.012863 
M335.809540,248.238144 
	C336.515625,247.718048 337.780579,247.252960 337.838074,246.669022 
	C338.242188,242.563629 336.460114,237.613434 342.509338,235.568146 
	C340.389130,235.568146 338.268951,235.568146 335.379852,235.568146 
	C335.379852,239.437881 335.379852,243.493103 335.809540,248.238144 
M217.979980,245.011353 
	C217.979980,238.625900 217.979980,232.240433 217.979980,225.854980 
	C217.446365,225.887634 216.912766,225.920303 216.379150,225.952957 
	C216.379150,233.409882 216.379150,240.866821 216.379150,248.323746 
	C216.704880,248.356674 217.030609,248.389587 217.356339,248.422516 
	C217.563919,247.579575 217.771484,246.736649 217.979980,245.011353 
M270.031677,245.928131 
	C270.031677,242.313187 270.031677,238.698227 270.031677,235.083282 
	C269.535309,235.104202 269.038910,235.125137 268.542542,235.146057 
	C268.542542,239.544617 268.542542,243.943176 268.542542,248.341721 
	C268.841187,248.371979 269.139832,248.402222 269.438477,248.432465 
	C269.633118,247.882935 269.827789,247.333405 270.031677,245.928131 
z"/>
<path fill="#6D667F" opacity="1.000000" stroke="none" 
	d="
M124.030151,98.133095 
	C124.030373,101.578339 124.030373,104.546509 124.030373,108.061310 
	C112.617729,108.061310 101.560585,108.061310 90.040649,108.061310 
	C90.040649,119.353874 90.040649,130.110397 90.040649,141.359589 
	C85.513268,141.359589 81.452667,141.359589 77.197754,141.359589 
	C77.197754,125.738411 77.197754,110.049004 77.197754,93.999031 
	C91.922470,93.999031 106.724174,93.938492 121.521820,94.155243 
	C122.374771,94.167740 123.194664,96.437027 124.030151,98.133095 
z"/>
<path fill="#6C657D" opacity="1.000000" stroke="none" 
	d="
M502.142670,301.157837 
	C502.142731,299.052216 502.142731,297.424408 502.142731,295.473358 
	C506.501617,295.473358 510.414459,295.473358 514.776794,295.473358 
	C514.776794,311.095306 514.776794,326.765808 514.776794,342.722260 
	C499.392212,342.722260 483.995575,342.722260 468.285767,342.722260 
	C468.285767,338.272491 468.285767,333.879150 468.285767,328.938110 
	C479.392181,328.938110 490.444763,328.938110 502.142609,328.938110 
	C502.142609,319.485840 502.142609,310.560730 502.142670,301.157837 
z"/>
<path fill="#6C657D" opacity="1.000000" stroke="none" 
	d="
M116.934631,328.841858 
	C119.402138,328.841797 121.377632,328.841797 123.688477,328.841797 
	C123.688477,333.547913 123.688477,337.947998 123.688477,342.678650 
	C108.335609,342.678650 92.947914,342.678650 77.167313,342.678650 
	C77.167313,327.058167 77.167313,311.388153 77.167313,295.430786 
	C81.226067,295.430786 85.149071,295.430786 89.632988,295.430786 
	C89.632988,306.347778 89.632988,317.245178 89.632988,328.841888 
	C98.926781,328.841888 107.684700,328.841888 116.934631,328.841858 
z"/>
<path fill="#6C657D" opacity="1.000000" stroke="none" 
	d="
M470.243347,94.007790 
	C485.337189,93.998779 499.953552,93.998779 514.893982,93.998779 
	C514.893982,109.934227 514.893982,125.493912 514.893982,141.454727 
	C510.882477,141.454727 506.846161,141.454727 502.235901,141.454727 
	C502.235901,130.527969 502.235901,119.634987 502.235901,108.226868 
	C490.626953,108.226868 479.566559,108.226868 467.995544,108.226868 
	C467.995544,103.767448 467.916595,99.816833 468.074829,95.875740 
	C468.100586,95.234497 469.175720,94.635384 470.243347,94.007790 
z"/>
<path fill="#444050" opacity="1.000000" stroke="none" 
	d="
M305.151978,211.646515 
	C305.083221,213.546539 305.014374,215.002579 304.947937,216.407990 
	C301.417999,217.520462 299.397766,216.878326 298.567657,213.099655 
	C297.618927,208.780960 296.098236,204.587936 293.958282,200.380905 
	C293.958282,205.632477 293.958282,210.884064 293.958282,216.553375 
	C291.850433,216.672043 290.302917,216.759155 288.413422,216.865540 
	C288.413422,204.874359 288.413422,193.300934 288.413422,181.547852 
	C292.176453,179.988785 294.101746,181.273560 294.985168,185.231171 
	C295.873505,189.210724 297.222198,193.087524 299.416321,196.910690 
	C299.416321,191.806717 299.416321,186.702759 299.416321,181.290024 
	C301.581940,181.290024 303.145569,181.290024 305.151855,181.290024 
	C305.151855,191.315475 305.151855,201.259018 305.151978,211.646515 
z"/>
<path fill="#464252" opacity="1.000000" stroke="none" 
	d="
M330.507141,182.165314 
	C334.300140,187.071320 334.305359,195.956696 331.148499,200.570709 
	C330.387390,201.683121 330.079041,203.582581 330.428986,204.887802 
	C331.452942,208.707321 332.914062,212.409622 334.391602,216.703262 
	C326.050293,218.180328 328.711426,210.077301 325.043701,207.286133 
	C324.892792,210.390518 324.750183,213.324402 324.593506,216.547775 
	C322.803070,216.547775 321.251801,216.547775 319.411469,216.547775 
	C319.411469,204.783966 319.411469,193.213715 319.411469,180.690613 
	C323.142822,181.126694 326.654968,181.537140 330.507141,182.165314 
M327.967865,189.562607 
	C327.384003,188.535126 326.800140,187.507645 326.216278,186.480164 
	C325.891296,186.673096 325.566315,186.866028 325.241333,187.058960 
	C325.241333,190.322708 325.241333,193.586441 325.241333,196.850189 
	C325.845734,196.932938 326.450104,197.015671 327.054504,197.098419 
	C327.359497,194.893356 327.664520,192.688293 327.967865,189.562607 
z"/>
<path fill="#464252" opacity="1.000000" stroke="none" 
	d="
M445.849457,215.163589 
	C443.835663,218.169144 441.877045,218.005341 440.506775,214.996979 
	C439.374176,212.510468 438.618408,209.852325 436.838684,207.429260 
	C436.838684,210.309296 436.838684,213.189331 436.838684,216.535690 
	C434.911591,216.670197 433.361633,216.778381 431.435852,216.912796 
	C431.435852,204.945724 431.435852,193.372665 431.435852,181.181412 
	C434.267456,181.181412 437.416687,180.484833 439.992310,181.400925 
	C442.068359,182.139343 444.737457,184.725006 444.889557,186.667633 
	C445.272339,191.555847 447.047089,197.005905 442.362366,201.246094 
	C441.738770,201.810501 441.981934,203.743759 442.328278,204.890732 
	C443.334656,208.223389 444.597595,211.478561 445.849457,215.163589 
M439.943146,190.484741 
	C439.445221,189.163071 438.947296,187.841385 438.449402,186.519714 
	C438.042175,186.725342 437.634949,186.930969 437.227722,187.136612 
	C437.227722,190.375626 437.227722,193.614655 437.227722,196.853683 
	C437.834869,196.942581 438.442017,197.031479 439.049164,197.120377 
	C439.347198,195.215363 439.645264,193.310364 439.943146,190.484741 
z"/>
<path fill="#464252" opacity="1.000000" stroke="none" 
	d="
M269.446899,201.937195 
	C269.454285,197.129791 269.317596,192.803848 269.506104,188.492111 
	C269.726105,183.460190 272.420532,180.870193 276.894653,180.994400 
	C281.074799,181.110443 283.710083,183.732193 283.828857,188.486984 
	C284.003052,195.460678 283.995697,202.444641 283.834991,209.418930 
	C283.725586,214.167175 281.125702,216.746414 276.889374,216.867966 
	C272.356262,216.998047 269.778992,214.457428 269.487976,209.401443 
	C269.354523,207.082825 269.453217,204.750839 269.446899,201.937195 
M278.103088,187.721222 
	C275.650208,185.586166 275.043488,187.099091 275.025848,189.361450 
	C274.976746,195.657562 274.933075,201.956085 275.083160,208.248993 
	C275.107025,209.250000 276.144012,210.226837 276.712616,211.214859 
	C277.226624,210.165436 278.163757,209.124664 278.185425,208.065170 
	C278.317566,201.605896 278.241638,195.142349 278.103088,187.721222 
z"/>
<path fill="#474353" opacity="1.000000" stroke="none" 
	d="
M358.945160,191.764496 
	C359.549713,188.077103 360.112518,184.821335 360.741852,181.180664 
	C362.633698,181.098022 364.373413,181.022049 366.788086,180.916580 
	C368.668945,192.769791 370.520874,204.440445 372.443512,216.556900 
	C370.434784,216.655502 369.046753,216.723633 367.586670,216.795319 
	C367.042053,214.741928 366.582947,213.011093 366.075195,211.096741 
	C364.536682,211.096741 363.086823,211.096741 361.362518,211.096741 
	C360.907745,212.752426 360.435669,214.470978 359.912201,216.376663 
	C358.455109,216.510330 357.029114,216.641144 354.769897,216.848404 
	C356.193329,208.358994 357.548340,200.277573 358.945160,191.764496 
z"/>
<path fill="#444050" opacity="1.000000" stroke="none" 
	d="
M226.767105,180.989868 
	C227.617981,181.703369 228.525818,182.480118 228.428864,183.099670 
	C226.685959,194.239914 224.821625,205.361160 222.957138,216.644730 
	C220.853485,216.644730 219.077881,216.644730 216.851669,216.644730 
	C214.903366,204.998795 212.963791,193.405060 210.993820,181.629654 
	C214.988754,180.047455 216.829559,180.922729 217.145172,185.412460 
	C217.505157,190.533508 218.539062,195.607193 220.182541,200.894852 
	C220.738647,197.882278 221.347290,194.878174 221.835464,191.854614 
	C222.285660,189.066315 222.336777,186.178574 223.118042,183.496078 
	C223.427628,182.433151 225.232391,181.805679 226.767105,180.989868 
z"/>
<path fill="#464252" opacity="1.000000" stroke="none" 
	d="
M253.104034,192.578186 
	C251.492889,190.780533 250.281769,188.982346 249.044724,187.145691 
	C246.624481,188.416946 246.001602,192.098022 248.221786,194.775726 
	C249.170914,195.920456 250.248795,197.037216 251.474136,197.859894 
	C255.824066,200.780365 256.398560,205.007889 255.952209,209.719116 
	C255.516739,214.315491 252.921921,216.924652 248.654984,216.869751 
	C244.288864,216.813568 241.885681,214.309906 241.705505,209.514267 
	C241.656601,208.212830 241.846527,206.902405 241.940506,205.373764 
	C243.584763,205.373764 245.006119,205.373764 246.366272,205.373764 
	C246.599854,205.777344 246.819031,206.038971 246.914078,206.339813 
	C247.417908,207.934402 247.890549,209.538864 248.374008,211.139893 
	C248.939682,210.910141 249.984940,210.701477 249.996124,210.447342 
	C250.096848,208.156433 250.495758,205.704865 249.829300,203.611786 
	C249.341187,202.078766 247.554092,200.747162 246.051025,199.787964 
	C240.835922,196.459900 240.963181,191.345993 242.079285,186.481323 
	C242.551682,184.422302 245.250061,181.760315 247.251358,181.458435 
	C249.554291,181.111084 253.108658,182.402435 254.453430,184.216873 
	C255.822205,186.063705 255.190872,189.411423 255.312119,192.107483 
	C255.317932,192.236847 254.133957,192.419708 253.104034,192.578186 
z"/>
<path fill="#444050" opacity="1.000000" stroke="none" 
	d="
M344.051941,216.866180 
	C341.807129,216.866150 340.011963,216.866150 338.024231,216.866150 
	C338.024231,204.836197 338.024231,193.231537 338.024231,181.301483 
	C342.307129,181.301483 346.523224,181.301483 351.050415,181.301483 
	C351.050415,182.826447 351.050415,184.401840 351.050415,186.305862 
	C348.508820,186.479034 346.083984,186.644257 343.395874,186.827423 
	C343.395874,189.871063 343.395874,192.787292 343.395874,195.888763 
	C345.140167,196.031250 346.765900,196.164032 348.819397,196.331772 
	C348.819397,198.006241 348.819397,199.698959 348.819397,201.653885 
	C347.035034,201.798935 345.280548,201.941574 343.384003,202.095764 
	C343.384003,205.197235 343.384003,208.118561 343.384003,211.352890 
	C345.940430,211.352890 348.238098,211.352890 351.063263,211.352890 
	C351.149841,213.171097 351.222656,214.701248 351.325714,216.866196 
	C348.720886,216.866196 346.611237,216.866196 344.051941,216.866180 
z"/>
<path fill="#565261" opacity="1.000000" stroke="none" 
	d="
M179.762695,200.965775 
	C179.814880,202.044037 179.867065,203.122314 179.507294,204.600922 
	C177.680435,205.353775 176.265518,205.706268 174.850586,206.058777 
	C174.170624,204.643311 173.490646,203.227844 172.810669,201.812378 
	C172.155502,203.220840 171.052872,204.592896 170.934738,206.045044 
	C170.655716,209.474899 170.845139,212.942871 170.845139,216.635651 
	C168.719803,216.635651 167.161133,216.635651 165.328888,216.635651 
	C165.328888,204.790955 165.328888,193.227310 165.328888,181.229645 
	C166.973511,181.121811 168.535645,181.019379 170.600662,180.883957 
	C170.600662,185.027298 170.393280,188.804520 170.715057,192.536118 
	C170.825180,193.813049 172.261719,194.975601 173.573669,196.548615 
	C174.533722,198.567825 175.012314,200.228836 175.546097,202.081390 
	C177.291519,201.619583 178.527100,201.292679 179.762695,200.965775 
z"/>
<path fill="#403B4C" opacity="1.000000" stroke="none" 
	d="
M412.634186,206.017166 
	C412.606445,200.191666 412.448395,194.362976 412.591156,188.541641 
	C412.711273,183.642365 415.160706,181.127609 419.414246,181.007385 
	C423.837891,180.882355 426.601288,183.577652 426.816559,188.562317 
	C426.981598,192.383881 426.837555,196.218796 426.423126,200.552216 
	C424.458069,200.360886 422.900879,199.665085 421.193359,198.528519 
	C421.043060,194.335388 421.043060,190.583023 421.043060,186.830658 
	C420.491516,186.703430 419.939972,186.576187 419.388397,186.448959 
	C418.915558,187.625595 418.075897,188.789276 418.033844,189.981140 
	C417.858032,194.960648 417.921753,199.948593 417.535370,205.071777 
	C415.660095,205.479126 414.147156,205.748154 412.634186,206.017166 
z"/>
<path fill="#54505F" opacity="1.000000" stroke="none" 
	d="
M398.229431,204.022720 
	C398.229431,198.389603 398.229431,192.756485 398.229431,187.154572 
	C396.251465,186.754715 394.826691,186.466675 393.222534,186.142380 
	C393.222534,184.551025 393.222534,183.092850 393.222534,181.285065 
	C398.145996,181.285065 403.054077,181.285065 408.463196,181.285065 
	C408.550415,182.788864 408.640564,184.343170 408.739807,186.053894 
	C406.939514,186.457321 405.536713,186.771683 403.354492,187.260712 
	C403.354492,195.171463 403.354492,203.130264 402.974182,211.398102 
	C401.139038,209.145660 399.684235,206.584198 398.229431,204.022720 
z"/>
<path fill="#4E4A59" opacity="1.000000" stroke="none" 
	d="
M232.058426,212.718063 
	C232.058319,201.988403 232.058319,191.724640 232.058319,181.232346 
	C234.134079,181.232346 235.691666,181.232346 237.516052,181.232346 
	C237.516052,193.068405 237.516052,204.630661 237.516052,216.493546 
	C234.575882,216.957825 231.613007,218.063599 232.058426,212.718063 
z"/>
<path fill="#5C5866" opacity="1.000000" stroke="none" 
	d="
M184.377914,202.059479 
	C184.377914,195.174759 184.377914,188.290070 184.377914,181.164673 
	C188.952255,181.164673 193.180450,181.164673 197.794434,181.164673 
	C197.874039,182.876114 197.946777,184.440109 198.038330,186.408157 
	C195.271240,186.586685 192.853882,186.742661 190.176605,186.915390 
	C190.176605,189.982101 190.176605,192.874573 190.176605,195.892624 
	C192.003830,196.032120 193.621536,196.155624 195.274109,196.281799 
	C195.274109,198.165207 195.274109,199.884323 195.274109,201.954590 
	C193.711182,201.954590 192.241592,201.954590 190.075134,201.868332 
	C187.711456,201.874542 186.044693,201.967010 184.377914,202.059479 
z"/>
<path fill="#403B4C" opacity="1.000000" stroke="none" 
	d="
M151.167770,203.986389 
	C151.167770,198.373138 151.167770,192.759903 151.167770,187.032990 
	C149.219421,186.699646 147.799255,186.456680 146.153427,186.175095 
	C146.153427,184.510193 146.153427,182.954849 146.153427,181.192673 
	C151.125122,181.192673 155.881393,181.192673 160.930313,181.192673 
	C160.930313,182.803925 160.930313,184.380600 160.930313,186.205658 
	C159.447769,186.465775 158.042053,186.712418 155.731796,187.117752 
	C155.731796,192.727112 155.731796,198.278580 155.036072,203.921341 
	C153.282822,204.003891 152.225296,203.995148 151.167770,203.986389 
z"/>
<path fill="#3C3848" opacity="1.000000" stroke="none" 
	d="
M265.077148,212.758987 
	C265.625092,217.055481 263.427155,217.272308 260.185059,216.539688 
	C260.185059,204.985382 260.185059,193.313187 260.185059,181.282211 
	C261.503601,181.172760 262.913849,181.055710 265.077240,180.876129 
	C265.077240,191.522400 265.077240,201.904739 265.077148,212.758987 
z"/>
<path fill="#504B5B" opacity="1.000000" stroke="none" 
	d="
M291.093750,237.176941 
	C293.594116,236.308289 295.840332,235.526291 298.150665,235.204895 
	C299.618866,235.000687 301.182312,235.480728 303.060211,235.694580 
	C303.060211,240.121841 303.313660,244.947571 302.978668,249.732117 
	C302.718506,253.448181 300.383881,255.851776 296.489410,256.007416 
	C292.744080,256.157135 290.450287,254.318329 289.585144,250.097488 
	C298.002960,255.087769 300.365448,254.428131 300.654633,248.736038 
	C297.360443,247.985184 293.784515,248.077927 291.469116,246.415253 
	C288.496643,244.280716 288.731934,240.624817 291.093750,237.176941 
M297.176270,237.092957 
	C292.996704,236.915665 291.298431,239.090637 292.007538,243.004379 
	C292.576294,246.143356 295.048828,247.004410 297.692535,246.039291 
	C298.976715,245.570496 300.702271,243.663513 300.583801,242.588852 
	C300.380524,240.744537 298.887726,239.042358 297.176270,237.092957 
z"/>
<path fill="#4E4A59" opacity="1.000000" stroke="none" 
	d="
M395.782532,246.123306 
	C395.763031,243.889160 396.115662,241.951904 395.606842,240.276245 
	C395.225555,239.020554 393.735321,238.101562 392.738831,237.032654 
	C391.778870,238.196304 390.246674,239.243042 389.980042,240.548325 
	C389.452820,243.129395 389.625488,245.853455 389.508759,248.518387 
	C388.962738,248.511505 388.416748,248.504623 387.870758,248.497742 
	C387.731354,246.191071 387.883636,243.814941 387.356171,241.600693 
	C386.965057,239.958649 385.690979,238.526917 384.810181,237.001511 
	C383.563995,238.529434 381.750610,239.884598 381.218964,241.630142 
	C380.591248,243.691147 381.071655,246.089645 380.116669,248.408752 
	C378.390656,244.262299 379.086823,239.881683 378.780914,235.588028 
	C383.569977,235.334961 388.199249,234.676056 392.742065,235.054504 
	C394.554749,235.205521 397.156494,237.363312 397.662811,239.110657 
	C398.487152,241.955505 397.885254,245.213638 396.963531,248.551346 
	C396.570587,247.878418 396.177643,247.205490 395.782532,246.123306 
z"/>
<path fill="#403B4C" opacity="1.000000" stroke="none" 
	d="
M376.112274,205.951965 
	C376.112274,197.825485 376.112274,189.699005 376.112274,181.285248 
	C378.011902,181.285248 379.566833,181.285248 381.566345,181.285248 
	C381.566345,190.292450 381.566345,199.097977 381.193420,208.298218 
	C379.251099,207.779266 377.681671,206.865616 376.112274,205.951965 
z"/>
<path fill="#54505F" opacity="1.000000" stroke="none" 
	d="
M421.343689,198.969284 
	C422.900879,199.665085 424.458069,200.360886 426.329712,201.006638 
	C426.737274,203.750336 426.945831,206.546082 426.896912,209.337311 
	C426.819977,213.727554 424.721619,216.524124 420.143677,216.893906 
	C415.762390,217.247787 413.400574,214.958755 413.051758,209.280823 
	C414.970825,208.508530 416.448212,208.274643 417.971497,208.465210 
	C418.629761,209.646423 419.242035,210.403152 419.854309,211.159882 
	C420.305664,210.394241 421.102875,209.648407 421.148071,208.859512 
	C421.336426,205.569809 421.298584,202.267181 421.343689,198.969284 
z"/>
<path fill="#4B4756" opacity="1.000000" stroke="none" 
	d="
M194.005890,236.941223 
	C194.005859,233.610016 194.005859,230.743530 194.005859,226.638626 
	C196.901871,231.094528 197.162415,243.923111 194.588211,246.019409 
	C192.619339,247.622787 189.468216,248.855927 187.074341,248.533859 
	C184.932587,248.245712 181.685440,245.815781 181.412674,243.964508 
	C180.640182,238.721207 181.142166,233.290115 181.142166,227.932999 
	C181.768448,227.895248 182.394730,227.857498 183.021011,227.819748 
	C183.021011,232.187515 182.735275,236.583313 183.159622,240.909454 
	C183.332855,242.675781 184.714828,245.247269 186.137955,245.737869 
	C187.995880,246.378357 191.435303,246.072266 192.395874,244.807541 
	C193.780563,242.984375 193.548218,239.933105 194.005890,236.941223 
z"/>
<path fill="#3C3848" opacity="1.000000" stroke="none" 
	d="
M184.308502,202.517212 
	C186.044693,201.967010 187.711456,201.874542 189.673096,201.886047 
	C189.905579,204.112534 189.823914,206.234741 189.790695,208.357697 
	C189.778091,209.163071 189.876999,209.970169 189.952759,211.240616 
	C192.085236,211.358719 194.135330,211.472275 196.667282,211.968811 
	C197.307541,212.640656 197.532135,212.862518 197.822937,213.017349 
	C198.391312,215.692856 197.664612,217.085892 194.574097,216.886093 
	C191.308655,216.674988 188.018951,216.838715 184.239075,216.838715 
	C184.239075,211.863113 184.239075,207.419037 184.308502,202.517212 
z"/>
<path fill="#5C5866" opacity="1.000000" stroke="none" 
	d="
M357.133179,238.208466 
	C357.576691,239.767197 357.856171,240.973923 358.258209,242.709808 
	C354.208435,242.709808 350.778198,242.709808 346.507690,242.709808 
	C349.617126,248.379440 353.456604,245.028030 356.977142,244.423492 
	C354.136139,248.961334 351.208069,249.839661 347.511749,247.600479 
	C343.955536,245.446182 342.896667,241.612732 344.916473,238.204697 
	C346.931915,234.804047 351.424164,233.676407 354.843719,235.805923 
	C355.660919,236.314835 356.266327,237.163864 357.133179,238.208466 
M354.710968,239.009201 
	C350.608704,235.864349 349.081818,236.138916 346.987671,241.117218 
	C349.919220,240.621368 352.431061,240.196518 354.710968,239.009201 
z"/>
<path fill="#4B4756" opacity="1.000000" stroke="none" 
	d="
M366.577026,234.899841 
	C369.274078,235.140762 371.531097,235.408096 374.062256,235.707901 
	C374.062256,239.584732 374.062256,243.832138 374.062256,248.093567 
	C372.629608,247.997849 371.327972,247.605011 370.195496,247.888321 
	C365.356628,249.098770 362.210358,247.869308 360.999969,244.055695 
	C359.705872,239.978363 361.434753,236.905823 366.577026,234.899841 
M371.825928,243.200256 
	C372.403992,240.199768 371.546997,237.570755 368.383087,237.281235 
	C366.742889,237.131149 363.998932,238.559616 363.437653,239.953186 
	C362.836060,241.446976 363.599884,244.510269 364.860687,245.509171 
	C367.063568,247.254486 369.841125,246.929077 371.825928,243.200256 
z"/>
<path fill="#3C3848" opacity="1.000000" stroke="none" 
	d="
M179.849365,200.506622 
	C178.527100,201.292679 177.291519,201.619583 175.546097,202.081390 
	C175.012314,200.228836 174.533722,198.567825 174.042847,196.533997 
	C174.323410,191.270172 174.616241,186.379166 174.923218,181.251907 
	C176.501709,181.251907 177.910461,181.251907 179.936020,181.251907 
	C179.936020,187.560532 179.936020,193.804001 179.849365,200.506622 
z"/>
<path fill="#696572" opacity="1.000000" stroke="none" 
	d="
M200.975235,248.421127 
	C200.359344,244.037704 200.112640,239.803787 199.805359,234.530396 
	C203.961411,235.321381 208.956558,234.850586 210.395340,236.889435 
	C212.397232,239.726303 211.735291,244.442963 212.213562,248.354996 
	C211.385468,248.436935 210.557358,248.518860 209.729263,248.600784 
	C209.586578,246.273666 209.679596,243.898560 209.219101,241.636108 
	C208.907410,240.104691 207.817215,238.731735 207.075211,237.287903 
	C205.678085,238.616257 203.765732,239.705200 203.009979,241.331604 
	C201.989227,243.528290 201.857559,246.138092 200.975235,248.421127 
z"/>
<path fill="#54505F" opacity="1.000000" stroke="none" 
	d="
M235.114136,244.089142 
	C233.150330,247.550385 230.631317,249.421036 226.839111,248.394211 
	C222.896591,247.326691 220.784149,243.842560 221.765259,240.038345 
	C222.808853,235.991913 225.692307,234.480057 229.645584,234.940323 
	C233.862778,235.431320 235.601883,238.279449 235.114136,244.089142 
M229.311401,236.960510 
	C227.525040,238.247162 225.310471,239.243546 224.150513,240.954788 
	C223.644348,241.701508 224.914597,244.691025 226.069885,245.261765 
	C227.506409,245.971451 229.996902,245.820068 231.430969,244.995239 
	C234.337799,243.323288 233.675964,240.181168 229.311401,236.960510 
z"/>
<path fill="#7A7682" opacity="1.000000" stroke="none" 
	d="
M376.016144,206.333359 
	C377.681671,206.865616 379.251099,207.779266 381.131348,208.749069 
	C383.980072,210.084686 386.517944,211.364166 389.739380,212.988266 
	C390.380768,215.527206 389.348267,217.366394 385.416565,217.063171 
	C383.120392,216.886093 380.740753,217.215714 378.533875,216.717957 
	C377.547699,216.495544 376.893921,214.799286 376.468811,213.406281 
	C377.537018,212.998383 378.225677,212.956100 378.914307,212.913818 
	C377.980835,211.625778 377.047363,210.337723 376.113922,209.049683 
	C376.049316,208.271362 375.984650,207.493057 376.016144,206.333359 
z"/>
<path fill="#474353" opacity="1.000000" stroke="none" 
	d="
M258.850494,238.766510 
	C260.464539,237.178192 261.857697,235.873123 263.250854,234.568054 
	C263.555786,234.897049 263.860687,235.226044 264.165619,235.555054 
	C262.709961,237.455505 261.254303,239.355972 259.672211,241.421524 
	C261.300110,243.661346 262.879883,245.834900 264.459656,248.008453 
	C264.027954,248.422028 263.596252,248.835587 263.164551,249.249146 
	C261.738647,246.996948 260.312714,244.744736 258.886780,242.492538 
	C258.429352,242.774521 257.971954,243.056503 257.514526,243.338486 
	C257.200684,245.052017 256.886810,246.765549 256.572937,248.479080 
	C256.245239,248.460983 255.917511,248.442902 255.589783,248.424820 
	C255.589783,240.926483 255.589783,233.428131 255.589783,225.929794 
	C256.090546,225.905823 256.591278,225.881851 257.092041,225.857864 
	C257.092041,230.130768 257.078094,234.403915 257.156647,238.675354 
	C257.159119,238.809143 258.117096,238.925354 258.850494,238.766510 
z"/>
<path fill="#504B5B" opacity="1.000000" stroke="none" 
	d="
M247.804840,238.166656 
	C245.473618,238.342728 243.083359,238.267914 241.566833,239.382187 
	C240.761353,239.974030 241.099106,244.002808 241.557114,244.126602 
	C244.433212,244.904221 247.488312,245.019745 250.860870,245.396271 
	C249.701981,247.479065 247.281052,249.873657 244.204697,248.615555 
	C241.741486,247.608246 239.210861,244.795258 238.387482,242.242615 
	C237.335083,238.979996 239.627625,236.073654 243.042816,235.121490 
	C246.867508,234.055161 249.835037,235.408844 251.856049,240.854355 
	C249.866455,239.556503 248.987747,238.983307 247.804840,238.166656 
z"/>
<path fill="#504B5B" opacity="1.000000" stroke="none" 
	d="
M408.389343,244.279144 
	C406.905579,243.419220 405.522919,243.094803 404.562042,242.275635 
	C403.206848,241.120361 401.516724,239.716293 401.239380,238.188171 
	C401.082611,237.324417 403.410858,235.169006 404.721252,235.079453 
	C406.621124,234.949615 408.612793,236.162521 410.565308,236.802704 
	C410.405334,237.247147 410.245392,237.691589 410.085419,238.136032 
	C407.958008,237.754120 405.830566,237.372208 402.611633,236.794373 
	C404.924316,241.847870 412.713409,239.766556 410.707245,246.083191 
	C410.293671,247.385315 407.583191,248.678116 405.934570,248.674042 
	C404.128937,248.669571 402.326996,247.157379 400.780457,245.713409 
	C403.589905,244.276657 406.614777,250.630859 408.389343,244.279144 
z"/>
<path fill="#4B4756" opacity="1.000000" stroke="none" 
	d="
M286.073975,246.435913 
	C285.719055,247.441162 285.370392,248.023346 285.021729,248.605530 
	C284.655762,248.537369 284.289825,248.469193 283.923889,248.401031 
	C283.923889,245.990692 284.233185,243.524338 283.810394,241.190582 
	C283.547821,239.741180 282.175842,238.492752 281.301849,237.154114 
	C279.914673,238.338852 277.802185,239.281311 277.306915,240.763977 
	C276.525208,243.104279 276.829102,245.807220 276.673492,248.356674 
	C276.262115,248.369873 275.850739,248.383087 275.439362,248.396286 
	C275.439362,244.085754 275.439362,239.775223 275.439362,235.145782 
	C275.660553,235.184967 276.227356,235.318527 276.801941,235.382233 
	C286.084045,236.411530 286.084259,236.409531 286.073975,246.435913 
z"/>
<path fill="#5C5866" opacity="1.000000" stroke="none" 
	d="
M331.010559,239.802032 
	C330.668182,246.601166 325.488922,249.575226 315.912872,248.132568 
	C315.912872,244.114487 315.912872,240.015488 316.200195,235.404694 
	C316.661621,234.851715 316.835724,234.810547 317.379395,235.013138 
	C317.748962,238.801529 317.748962,242.346161 317.748962,245.833054 
	C325.548706,246.219742 327.061890,245.395264 329.400726,240.088806 
	C330.140503,239.905289 330.575531,239.853668 331.010559,239.802032 
z"/>
<path fill="#4B4756" opacity="1.000000" stroke="none" 
	d="
M151.208176,204.377991 
	C152.225296,203.995148 153.282822,204.003891 154.736450,204.033371 
	C155.627487,208.175797 156.122437,212.297501 156.651474,216.703125 
	C154.340134,216.703125 152.903931,216.703125 151.248581,216.703125 
	C151.248581,212.633514 151.248581,208.701553 151.208176,204.377991 
z"/>
<path fill="#F9F9F9" opacity="1.000000" stroke="none" 
	d="
M331.013306,239.428497 
	C330.575531,239.853668 330.140503,239.905289 329.366760,239.666916 
	C329.022095,238.216171 328.990875,237.054916 329.015137,235.894821 
	C329.079865,232.799744 324.010376,228.960159 319.610718,229.095322 
	C315.261810,229.228928 317.671509,232.770996 317.009796,234.769379 
	C316.835724,234.810547 316.661621,234.851715 316.222961,234.938065 
	C315.859894,232.517349 315.761353,230.051468 315.662781,227.585571 
	C318.134277,227.735779 320.784637,227.360641 323.045166,228.130371 
	C331.262695,230.928574 331.988220,232.148407 331.013306,239.428497 
z"/>
<path fill="#6D667F" opacity="1.000000" stroke="none" 
	d="
M335.594696,247.893219 
	C335.379852,243.493103 335.379852,239.437881 335.379852,235.568146 
	C338.268951,235.568146 340.389130,235.568146 342.509338,235.568146 
	C336.460114,237.613434 338.242188,242.563629 337.838074,246.669022 
	C337.780579,247.252960 336.515625,247.718048 335.594696,247.893219 
z"/>
<path fill="#4E4A59" opacity="1.000000" stroke="none" 
	d="
M174.706604,206.499329 
	C176.265518,205.706268 177.680435,205.353775 179.466644,205.004791 
	C179.837936,208.776855 179.837936,212.545395 179.837936,216.639343 
	C178.180832,216.723419 176.775818,216.794724 174.562637,216.907013 
	C174.562637,213.393997 174.562637,210.166946 174.706604,206.499329 
z"/>
<path fill="#444050" opacity="1.000000" stroke="none" 
	d="
M398.160614,204.377594 
	C399.684235,206.584198 401.139038,209.145660 402.862854,211.850952 
	C403.306183,213.385590 403.480499,214.776413 403.701904,216.542618 
	C401.643066,216.542618 400.118530,216.542618 398.091797,216.542618 
	C398.091797,212.524414 398.091797,208.628448 398.160614,204.377594 
z"/>
<path fill="#464252" opacity="1.000000" stroke="none" 
	d="
M217.979523,245.452530 
	C217.771484,246.736649 217.563919,247.579575 217.356339,248.422516 
	C217.030609,248.389587 216.704880,248.356674 216.379150,248.323746 
	C216.379150,240.866821 216.379150,233.409882 216.379150,225.952957 
	C216.912766,225.920303 217.446365,225.887634 217.979980,225.854980 
	C217.979980,232.240433 217.979980,238.625900 217.979523,245.452530 
z"/>
<path fill="#403B4C" opacity="1.000000" stroke="none" 
	d="
M270.027039,246.356003 
	C269.827789,247.333405 269.633118,247.882935 269.438477,248.432465 
	C269.139832,248.402222 268.841187,248.371979 268.542542,248.341721 
	C268.542542,243.943176 268.542542,239.544617 268.542542,235.146057 
	C269.038910,235.125137 269.535309,235.104202 270.031677,235.083282 
	C270.031677,238.698227 270.031677,242.313187 270.027039,246.356003 
z"/>
<path fill="#8E8C96" opacity="1.000000" stroke="none" 
	d="
M417.925568,208.040741 
	C416.448212,208.274643 414.970825,208.508530 413.138367,208.881409 
	C412.616058,208.158524 412.448853,207.296631 412.457886,206.225952 
	C414.147156,205.748154 415.660095,205.479126 417.614319,205.455307 
	C418.012238,206.480576 417.968903,207.260666 417.925568,208.040741 
z"/>
<path fill="#403B4C" opacity="1.000000" stroke="none" 
	d="
M376.082336,209.436554 
	C377.047363,210.337723 377.980835,211.625778 378.914307,212.913818 
	C378.225677,212.956100 377.537018,212.998383 376.538391,212.977417 
	C376.169220,211.883942 376.109985,210.853668 376.082336,209.436554 
z"/>
<path fill="#5C5866" opacity="1.000000" stroke="none" 
	d="
M197.875946,212.728577 
	C197.532135,212.862518 197.307541,212.640656 197.085876,212.120789 
	C197.324738,212.073120 197.626846,212.256470 197.875946,212.728577 
z"/>
<path fill="#F9F9F9" opacity="1.000000" stroke="none" 
	d="
M327.968689,190.022919 
	C327.664520,192.688293 327.359497,194.893356 327.054504,197.098419 
	C326.450104,197.015671 325.845734,196.932938 325.241333,196.850189 
	C325.241333,193.586441 325.241333,190.322708 325.241333,187.058960 
	C325.566315,186.866028 325.891296,186.673096 326.216278,186.480164 
	C326.800140,187.507645 327.384003,188.535126 327.968689,190.022919 
z"/>
<path fill="#F9F9F9" opacity="1.000000" stroke="none" 
	d="
M439.943237,190.945038 
	C439.645264,193.310364 439.347198,195.215363 439.049164,197.120377 
	C438.442017,197.031479 437.834869,196.942581 437.227722,196.853683 
	C437.227722,193.614655 437.227722,190.375626 437.227722,187.136612 
	C437.634949,186.930969 438.042175,186.725342 438.449402,186.519714 
	C438.947296,187.841385 439.445221,189.163071 439.943237,190.945038 
z"/>
<path fill="#FFFFFF" opacity="1.000000" stroke="none" 
	d="
M278.169098,188.200729 
	C278.241638,195.142349 278.317566,201.605896 278.185425,208.065170 
	C278.163757,209.124664 277.226624,210.165436 276.712616,211.214859 
	C276.144012,210.226837 275.107025,209.250000 275.083160,208.248993 
	C274.933075,201.956085 274.976746,195.657562 275.025848,189.361450 
	C275.043488,187.099091 275.650208,185.586166 278.169098,188.200729 
z"/>
<path fill="#F9F9F9" opacity="1.000000" stroke="none" 
	d="
M417.971497,208.465210 
	C417.968903,207.260666 418.012238,206.480576 417.976624,205.316986 
	C417.921753,199.948593 417.858032,194.960648 418.033844,189.981140 
	C418.075897,188.789276 418.915558,187.625595 419.388397,186.448959 
	C419.939972,186.576187 420.491516,186.703430 421.043060,186.830658 
	C421.043060,190.583023 421.043060,194.335388 421.193359,198.528519 
	C421.298584,202.267181 421.336426,205.569809 421.148071,208.859512 
	C421.102875,209.648407 420.305664,210.394241 419.854309,211.159882 
	C419.242035,210.403152 418.629761,209.646423 417.971497,208.465210 
z"/>
<path fill="#F9F9F9" opacity="1.000000" stroke="none" 
	d="
M297.556274,237.186737 
	C298.887726,239.042358 300.380524,240.744537 300.583801,242.588852 
	C300.702271,243.663513 298.976715,245.570496 297.692535,246.039291 
	C295.048828,247.004410 292.576294,246.143356 292.007538,243.004379 
	C291.298431,239.090637 292.996704,236.915665 297.556274,237.186737 
z"/>
<path fill="#F9F9F9" opacity="1.000000" stroke="none" 
	d="
M354.826935,239.390427 
	C352.431061,240.196518 349.919220,240.621368 346.987671,241.117218 
	C349.081818,236.138916 350.608704,235.864349 354.826935,239.390427 
z"/>
<path fill="#F9F9F9" opacity="1.000000" stroke="none" 
	d="
M371.646942,243.571045 
	C369.841125,246.929077 367.063568,247.254486 364.860687,245.509171 
	C363.599884,244.510269 362.836060,241.446976 363.437653,239.953186 
	C363.998932,238.559616 366.742889,237.131149 368.383087,237.281235 
	C371.546997,237.570755 372.403992,240.199768 371.646942,243.571045 
z"/>
<path fill="#FFFFFF" opacity="1.000000" stroke="none" 
	d="
M229.710556,237.028809 
	C233.675964,240.181168 234.337799,243.323288 231.430969,244.995239 
	C229.996902,245.820068 227.506409,245.971451 226.069885,245.261765 
	C224.914597,244.691025 223.644348,241.701508 224.150513,240.954788 
	C225.310471,239.243546 227.525040,238.247162 229.710556,237.028809 
z"/>
<path fill="#FFFFFF" opacity="1.000000" stroke="none" 
	d="
M317.379395,235.013138 
	C317.671509,232.770996 315.261810,229.228928 319.610718,229.095322 
	C324.010376,228.960159 329.079865,232.799744 329.015137,235.894821 
	C328.990875,237.054916 329.022095,238.216171 329.062012,239.798798 
	C327.061890,245.395264 325.548706,246.219742 317.748962,245.833054 
	C317.748962,242.346161 317.748962,238.801529 317.379395,235.013138 
z"/>
</svg>